<?xml version="1.0" standalone="no"?>
<!DOCTYPE svg PUBLIC "-//W3C//DTD SVG 20010904//EN"
 "http://www.w3.org/TR/2001/REC-SVG-20010904/DTD/svg10.dtd">
<svg version="1.0" xmlns="http://www.w3.org/2000/svg"
 width="258.000000pt" height="258.000000pt" viewBox="0 0 258.000000 258.000000"
 preserveAspectRatio="xMidYMid meet">
<metadata>
Created by potrace 1.11, written by Peter Selinger 2001-2013
</metadata>
<g transform="translate(0.000000,258.000000) scale(0.100000,-0.100000)"
fill="#000000" stroke="none">
<path d="M1258 2455 c-2 -2 -31 -5 -65 -9 -33 -4 -103 -15 -154 -26 -580 -124
-1008 -546 -1025 -1010 -2 -58 1 -123 6 -146 5 -23 11 -55 12 -73 1 -17 5 -31
9 -31 7 0 23 -56 22 -77 0 -7 2 -13 6 -13 4 0 20 -26 36 -57 17 -32 36 -62 44
-67 11 -7 11 -10 0 -17 -11 -7 -11 -9 -1 -9 16 0 61 -50 62 -68 0 -6 4 -11 8
-10 12 4 112 -97 112 -113 0 -11 3 -11 10 1 8 13 10 12 10 -2 0 -11 8 -18 20
-18 11 0 20 -3 20 -8 0 -4 13 -13 28 -20 16 -7 29 -18 30 -25 0 -6 3 -37 7
-68 10 -84 -7 -132 -68 -192 -29 -29 -70 -65 -91 -81 l-39 -29 27 -14 c15 -8
31 -11 36 -8 5 3 11 2 14 -3 3 -5 25 -7 50 -6 34 2 48 -1 57 -14 9 -15 10 -15
5 0 -7 24 5 30 20 10 8 -11 9 -19 2 -23 -6 -4 -4 -8 4 -12 10 -3 14 3 14 18 0
14 -4 21 -10 18 -6 -4 -7 -2 -3 2 4 5 14 10 23 11 11 2 13 -4 9 -19 -4 -12 -3
-17 2 -11 4 6 18 10 30 9 14 -1 19 3 16 12 -4 9 -9 10 -18 3 -8 -7 -12 -6 -12
3 0 7 11 13 23 13 12 0 21 -3 19 -6 -2 -4 2 -7 9 -7 8 0 12 6 9 14 -3 9 0 11
10 7 9 -3 14 -11 11 -19 -3 -7 2 -15 12 -19 13 -5 14 -4 6 7 -9 10 -8 17 1 27
8 9 9 11 0 6 -6 -3 -14 -2 -17 3 -4 5 2 8 11 6 10 -2 22 -4 27 -4 5 -1 2 -9
-5 -18 -12 -14 -10 -14 14 1 30 20 35 29 12 20 -8 -4 -15 -2 -15 4 0 15 39 22
66 12 18 -7 22 -6 17 5 -3 8 -10 12 -17 8 -6 -4 -5 1 3 11 14 16 15 16 27 -5
6 -13 10 -28 7 -35 -2 -7 0 -15 5 -18 5 -3 8 8 6 25 -3 26 -2 28 16 19 10 -5
22 -10 27 -10 4 1 -3 7 -17 14 -14 8 -28 12 -32 10 -5 -3 -8 -1 -8 3 0 5 10
14 21 22 19 11 21 11 16 -4 -4 -9 -3 -14 2 -10 5 3 12 -1 15 -7 3 -7 4 -2 1
12 -3 20 3 31 29 52 24 19 36 24 44 16 8 -8 10 -4 6 13 -4 23 -4 23 6 4 6 -12
21 -27 33 -34 21 -13 21 -13 5 6 -25 28 -22 40 4 17 22 -19 22 -19 8 0 -14 18
-13 19 3 13 11 -4 16 -3 12 3 -3 6 -2 10 4 10 5 0 12 -5 14 -10 3 -6 4 -5 3 2
-2 7 -10 12 -19 12 -9 -1 -14 2 -11 7 3 5 0 9 -5 9 -6 0 -11 -6 -11 -13 0 -8
-7 -14 -15 -14 -20 0 -19 13 1 21 8 3 12 11 8 17 -4 7 -3 9 2 6 6 -3 16 -2 24
3 9 5 19 5 27 -2 9 -7 13 -7 13 1 0 7 5 9 10 6 6 -3 10 -10 10 -15 0 -9 -19
-8 -37 3 -6 4 -14 4 -16 -1 -3 -4 6 -12 19 -19 15 -7 26 -7 30 -2 3 6 11 6 19
-1 8 -7 19 -9 25 -5 14 9 1 28 -14 22 -7 -3 -13 1 -13 8 0 10 5 11 17 5 10 -5
20 -6 24 -3 3 3 6 1 6 -5 0 -7 14 -12 30 -12 17 0 30 -5 30 -11 0 -6 -9 -8
-22 -4 -20 5 -21 4 -6 -5 11 -7 24 -8 35 -2 10 5 24 7 31 5 6 -3 12 0 12 6 0
5 -9 8 -20 6 -13 -3 -18 0 -14 7 4 6 3 8 -2 5 -6 -3 -16 -2 -24 3 -8 5 12 8
48 7 41 -1 62 -6 62 -14 0 -6 5 -15 10 -18 7 -4 9 3 6 18 -4 22 -1 24 35 22
44 -2 58 -10 34 -19 -9 -3 -14 -2 -11 2 3 4 -6 8 -18 8 -16 0 -23 -5 -21 -15
1 -9 -2 -22 -8 -28 -6 -9 -6 -13 2 -13 6 0 11 5 11 11 0 8 4 8 14 0 11 -9 16
-9 22 0 4 7 3 10 -2 7 -5 -3 -15 0 -21 8 -7 7 -9 15 -4 19 5 3 12 1 16 -5 10
-16 48 9 41 26 -4 9 -2 12 5 8 6 -3 8 -17 5 -29 -3 -13 -2 -27 4 -30 6 -3 7 1
4 9 -3 9 -2 16 4 16 6 0 12 -6 15 -12 3 -9 9 -7 19 6 15 19 15 19 26 0 10 -17
11 -17 12 -1 0 15 -11 22 -33 18 -4 -1 -3 9 4 21 10 18 13 19 23 7 16 -20 52
-47 42 -31 -4 6 -2 12 3 12 6 0 11 4 11 8 0 5 -7 9 -15 9 -8 0 -11 -5 -8 -10
3 -6 1 -7 -5 -3 -20 12 -13 26 10 22 12 -1 29 3 37 11 7 8 20 12 27 9 8 -3 14
0 14 7 0 8 4 7 10 -3 9 -13 11 -13 19 -1 5 8 17 15 28 16 10 1 28 7 41 13 12
7 22 10 22 6 0 -3 7 -1 15 6 12 10 15 10 15 -1 0 -8 5 -6 13 6 8 10 19 15 25
11 5 -3 12 -1 14 4 2 6 11 12 20 13 9 2 24 9 34 17 9 8 18 14 18 12 2 -6 41
11 67 29 20 14 29 16 39 6 10 -10 12 -9 8 3 -4 12 1 16 22 15 16 0 26 -3 24
-7 -2 -4 1 -10 7 -14 8 -5 9 -3 4 6 -6 9 -2 10 16 5 23 -7 24 -7 4 9 -18 14
-18 15 -2 16 9 0 17 5 17 10 0 6 -13 4 -29 -5 -17 -8 -32 -11 -36 -6 -3 5 8
12 25 16 17 4 28 10 25 15 -3 5 0 12 6 16 8 4 9 3 5 -4 -4 -7 -2 -12 3 -12 6
0 11 5 11 10 0 6 5 10 11 10 8 0 8 -4 2 -12 -10 -14 -16 -64 -6 -54 4 3 7 16
8 28 1 12 7 24 13 26 8 2 10 -3 6 -15 -5 -17 -5 -17 6 0 8 13 15 15 24 8 9 -8
18 -6 30 7 13 16 14 19 1 19 -8 0 -12 -4 -9 -8 2 -4 0 -10 -5 -13 -5 -4 -13
-1 -16 5 -8 12 34 61 46 54 4 -3 11 0 15 6 3 6 20 17 38 25 18 8 24 13 14 14
-21 0 -24 20 -4 20 8 0 17 4 21 9 3 6 -4 9 -15 8 -20 -1 -34 -22 -24 -38 3 -5
1 -9 -5 -9 -20 0 -20 18 -1 43 19 24 41 29 56 14 4 -4 12 -7 17 -7 5 0 -1 9
-14 20 -20 16 -21 19 -6 20 9 0 17 -6 17 -12 0 -9 4 -8 10 2 5 8 10 20 10 25
0 6 -4 4 -9 -4 -5 -7 -11 -9 -14 -5 -3 5 1 14 8 21 10 10 16 9 25 -2 13 -16
34 -10 24 6 -3 5 -10 7 -15 4 -20 -13 -7 24 21 60 17 21 30 41 30 45 0 4 7 7
15 7 10 0 13 -6 10 -18 -7 -20 10 -35 21 -18 5 8 3 9 -6 4 -9 -5 -10 -2 -6 13
5 14 1 24 -11 31 -11 6 -13 11 -5 11 7 0 10 4 7 10 -4 6 1 7 11 3 13 -5 16 -3
11 9 -3 9 2 24 12 35 10 10 15 25 13 32 -3 9 0 11 8 6 10 -6 12 -4 7 9 -5 12
0 19 16 26 18 7 19 9 4 9 -10 1 -15 6 -12 11 4 6 10 8 14 6 4 -3 13 0 21 6 12
8 12 9 -2 4 -20 -6 -23 6 -8 33 10 19 21 65 23 94 1 9 8 17 17 17 9 0 11 3 5
8 -10 6 -11 20 -5 40 1 4 3 14 4 22 0 8 7 14 14 12 8 -1 11 2 7 8 -3 6 -10 8
-14 6 -4 -3 -7 31 -6 75 1 44 -3 83 -8 86 -4 2 -2 12 5 21 10 12 10 14 1 8 -9
-5 -13 1 -13 18 0 14 -4 35 -9 48 -5 13 -19 50 -32 83 -58 153 -180 299 -335
401 -142 93 -325 165 -479 189 -22 3 -56 8 -75 11 -33 6 -297 13 -302 9z m899
-1630 c-9 -9 -14 -10 -19 -1 -4 6 -3 13 2 14 6 2 7 9 3 15 -4 7 0 6 10 -1 13
-11 14 -17 4 -27z m-54 -39 c-15 -17 -28 -32 -29 -33 0 -2 -9 4 -20 13 -10 8
-14 13 -8 10 6 -3 24 8 39 24 37 39 54 26 18 -14z m-722 -285 c6 10 8 7 6 -9
-2 -26 -21 -24 -24 4 -2 11 0 14 3 5 5 -11 8 -11 15 0z"/>
<path d="M2089 793 l-24 -28 28 24 c15 14 27 26 27 28 0 8 -8 1 -31 -24z"/>
<path d="M2515 1440 c3 -5 8 -10 11 -10 2 0 4 5 4 10 0 6 -5 10 -11 10 -5 0
-7 -4 -4 -10z"/>
<path d="M2480 1326 c0 -2 7 -7 16 -10 8 -3 12 -2 9 4 -6 10 -25 14 -25 6z"/>
<path d="M2475 1301 c-3 -5 -2 -12 3 -15 5 -3 9 1 9 9 0 17 -3 19 -12 6z"/>
<path d="M2437 1209 c7 -7 15 -10 18 -7 3 3 -2 9 -12 12 -14 6 -15 5 -6 -5z"/>
<path d="M2399 1143 c-7 -10 -9 -15 -5 -11 5 4 16 2 25 -5 14 -10 14 -10 4 4
-7 9 -10 19 -6 22 3 4 4 7 1 7 -3 0 -12 -8 -19 -17z"/>
<path d="M2395 1100 c-16 -7 -17 -9 -3 -9 9 -1 20 4 23 9 7 11 7 11 -20 0z"/>
<path d="M2319 1023 c-13 -14 -18 -23 -10 -18 10 6 12 2 7 -16 -6 -20 -5 -21
4 -6 6 9 8 21 5 26 -3 6 3 14 12 20 10 5 15 12 12 15 -3 3 -16 -6 -30 -21z"/>
<path d="M2335 979 c-4 -6 -5 -12 -2 -15 2 -3 7 2 10 11 7 17 1 20 -8 4z"/>
<path d="M2271 913 c-1 -17 16 -25 25 -12 4 7 3 9 -4 5 -5 -3 -13 0 -15 6 -4
9 -6 10 -6 1z"/>
<path d="M216 822 c-3 -5 1 -9 9 -9 8 0 15 4 15 9 0 4 -4 8 -9 8 -6 0 -12 -4
-15 -8z"/>
<path d="M246 782 c-2 -4 4 -8 14 -8 10 0 16 4 14 8 -3 4 -9 8 -14 8 -5 0 -11
-4 -14 -8z"/>
<path d="M2130 785 c0 -8 29 -12 39 -5 9 5 4 8 -13 8 -14 0 -26 -2 -26 -3z"/>
<path d="M350 680 c0 -5 5 -10 11 -10 5 0 7 5 4 10 -3 6 -8 10 -11 10 -2 0 -4
-4 -4 -10z"/>
<path d="M1948 678 c8 -9 11 -22 8 -27 -4 -5 -3 -12 2 -15 16 -10 10 33 -6 46
-15 12 -16 11 -4 -4z"/>
<path d="M394 665 c1 -8 6 -18 11 -22 4 -5 5 -2 0 6 -6 11 -4 13 8 8 23 -9 21
0 -2 13 -15 7 -19 7 -17 -5z"/>
<path d="M1892 663 c-6 -10 -13 -17 -16 -15 -3 1 -6 0 -6 -3 0 -3 0 -10 0 -17
0 -6 7 -3 15 8 14 18 15 17 10 -11 l-5 -30 11 28 c6 15 17 27 25 27 8 0 14 5
14 12 0 6 -3 8 -7 5 -3 -4 -12 -2 -19 4 -9 7 -15 5 -22 -8z"/>
<path d="M1825 630 c-3 -6 -10 -8 -15 -5 -4 3 -13 -2 -20 -9 -9 -12 -7 -17 9
-26 18 -9 20 -8 14 7 -6 16 -5 16 11 4 15 -13 19 -13 27 0 5 8 7 18 6 23 -5
15 -24 18 -32 6z m25 -8 c0 -13 -12 -22 -22 -16 -10 6 -1 24 13 24 5 0 9 -4 9
-8z"/>
<path d="M1750 595 c-7 -8 -17 -12 -22 -9 -6 4 -14 1 -18 -7 -5 -7 -23 -13
-41 -14 -17 -1 -37 -9 -44 -19 -10 -13 -14 -14 -18 -4 -3 10 -9 9 -24 -4 -11
-11 -29 -16 -45 -13 -27 5 -55 -16 -44 -34 3 -5 0 -11 -6 -14 -7 -3 -3 -4 9
-4 15 1 19 5 13 11 -15 15 -12 30 3 18 7 -6 22 -10 32 -8 11 2 23 -2 27 -8 6
-8 8 -7 8 1 0 7 7 10 18 7 14 -5 14 -4 2 4 -8 6 -18 8 -23 5 -5 -3 -8 0 -5 8
5 16 30 19 39 6 4 -6 10 0 14 12 3 11 11 21 16 21 6 0 7 -4 4 -10 -3 -5 -1
-10 4 -10 6 0 11 5 11 11 0 5 5 7 12 3 7 -4 8 -3 4 4 -11 18 2 14 23 -7 11
-11 16 -22 13 -26 -4 -3 2 -3 12 1 17 7 17 8 -2 18 -16 9 -18 15 -11 29 6 9
15 15 21 11 6 -4 5 -10 -3 -15 -10 -6 -10 -9 -2 -9 6 0 15 5 18 10 5 8 11 7
21 -1 12 -10 13 -9 8 6 -6 14 -4 16 7 10 12 -7 12 -6 -1 11 -8 10 -15 20 -16
22 -1 1 -7 -4 -14 -13z m20 -9 c0 -2 -7 -7 -16 -10 -8 -3 -12 -2 -9 4 6 10 25
14 25 6z m-214 -79 c4 -3 -4 -4 -16 -2 -30 6 -40 16 -12 12 12 -2 24 -6 28
-10z"/>
<path d="M1670 520 c0 -5 5 -10 10 -10 6 0 10 5 10 10 0 6 -4 10 -10 10 -5 0
-10 -4 -10 -10z"/>
<path d="M1626 503 c-6 -14 -5 -15 5 -6 7 7 10 15 7 18 -3 3 -9 -2 -12 -12z"/>
<path d="M1199 479 c0 -2 -2 -13 -4 -23 -2 -11 1 -27 6 -35 8 -12 8 -10 4 7
-6 22 -5 23 17 12 19 -9 20 -9 7 2 -9 7 -16 17 -17 21 0 9 -12 23 -13 16z"/>
<path d="M1060 445 c-9 -11 -10 -19 -3 -26 7 -7 15 -4 24 8 13 16 12 17 -3 4
-20 -15 -25 -2 -6 17 7 7 9 12 6 12 -3 0 -11 -7 -18 -15z"/>
<path d="M1320 451 c0 -6 4 -13 10 -16 6 -3 7 1 4 9 -7 18 -14 21 -14 7z"/>
<path d="M1013 435 c0 -8 4 -12 9 -9 5 3 6 10 3 15 -9 13 -12 11 -12 -6z"/>
<path d="M986 423 c-6 -14 -5 -15 5 -6 7 7 10 15 7 18 -3 3 -9 -2 -12 -12z"/>
<path d="M1146 423 c-6 -14 -5 -15 5 -6 7 7 10 15 7 18 -3 3 -9 -2 -12 -12z"/>
<path d="M856 411 c-3 -5 1 -11 9 -14 9 -4 12 -1 8 9 -6 16 -10 17 -17 5z"/>
<path d="M894 383 c1 -12 5 -25 9 -28 4 -3 5 -2 2 2 -3 3 1 13 8 21 8 11 8 14
0 9 -6 -4 -14 -1 -17 5 -2 7 -4 3 -2 -9z"/>
<path d="M830 379 c0 -5 -4 -7 -10 -4 -6 3 -7 -1 -3 -10 4 -12 8 -13 13 -5 4
7 14 16 21 21 11 7 10 9 -3 9 -10 0 -18 -5 -18 -11z"/>
<path d="M690 301 c0 -5 7 -12 16 -15 14 -5 15 -4 4 9 -14 17 -20 19 -20 6z"/>
<path d="M670 270 c-9 -6 -10 -10 -3 -10 6 0 15 5 18 10 8 12 4 12 -15 0z"/>
<path d="M716 258 c3 -5 10 -6 15 -3 13 9 11 12 -6 12 -8 0 -12 -4 -9 -9z"/>
<path d="M417 229 c4 -13 8 -18 11 -10 2 7 -1 18 -6 23 -8 8 -9 4 -5 -13z"/>
<path d="M536 213 c-6 -14 -5 -15 5 -6 7 7 10 15 7 18 -3 3 -9 -2 -12 -12z"/>
<path d="M450 199 c0 -5 5 -7 10 -4 6 3 10 8 10 11 0 2 -4 4 -10 4 -5 0 -10
-5 -10 -11z"/>
</g>
</svg>
